Coordinates
version=1
nRows=8
nColumns=40
inDegrees=yes

Units are S.I. units (second, meters, Newtons, ...)
Angles are in degrees.

endheader
time	pelvis_tilt	pelvis_list	pelvis_rotation	pelvis_tx	pelvis_ty	pelvis_tz	hip_flexion_r	hip_adduction_r	hip_rotation_r	knee_angle_r	knee_angle_r_beta	ankle_angle_r	subtalar_angle_r	mtp_angle_r	hip_flexion_l	hip_adduction_l	hip_rotation_l	knee_angle_l	knee_angle_l_beta	ankle_angle_l	subtalar_angle_l	mtp_angle_l	lumbar_extension	lumbar_bending	lumbar_rotation	arm_flex_r	arm_add_r	arm_rot_r	elbow_flex_r	pro_sup_r	wrist_flex_r	wrist_dev_r	arm_flex_l	arm_add_l	arm_rot_l	elbow_flex_l	pro_sup_l	wrist_flex_l	wrist_dev_l
     10.58500000	     -5.02859649	     -6.94793910	      5.30232793	      1.00479351	      0.91470022	      0.48054674	     -2.26351876	      5.76685475	    -16.74033804	      8.00114279	      8.00114279	     17.32648337	      5.67186823	     -3.41032478	     35.43318208	     -7.98533274	      1.01241673	     20.57001807	     20.57001807	      5.58894766	    -11.26129548	     10.67978362	    -10.36336405	      6.46330584	      4.24773431	     52.40884484	    -15.67857251	     -2.83903384	     92.35233468	     44.45713110	      0.00000000	      0.00000000	    -18.50705566	     -7.32164258	      3.66767836	     25.53142796	     45.49377307	      0.00000000	      0.00000000
     10.59607143	     -5.07745740	     -6.90099706	      5.08945902	      1.00631719	      0.91283956	      0.47877783	     -2.77744798	      5.57552321	    -16.48681904	      8.23677867	      8.23677867	     17.93258593	      5.68806401	     -3.38440607	     35.31533775	     -7.96376238	      0.72748633	     21.58006442	     21.58006442	      4.78506117	    -12.12769500	     10.53482676	    -10.10967168	      6.36862004	      4.39903335	     53.53165230	    -15.47417818	     -2.82051266	     93.04052604	     44.44477364	      0.00000000	      0.00000000	    -19.57557592	     -7.09137166	      3.79832926	     25.23668382	     45.45262350	      0.00000000	      0.00000000
     10.60714286	     -5.12633865	     -6.88758930	      4.91191728	      1.00789204	      0.91096418	      0.47693379	     -3.07473984	      5.34296665	    -16.31064555	      8.96653646	      8.96653646	     19.17296147	      5.75191613	     -1.84085464	     35.01364850	     -7.88097675	      0.84089602	     22.22762332	     22.22762332	      2.91025922	    -13.73566403	      8.19388404	     -9.87161514	      6.28546670	      4.20134749	     54.52482123	    -15.00045433	     -2.22121390	     93.89686444	     44.45473411	      0.00000000	      0.00000000	    -20.92097317	     -6.91096575	      4.48110291	     25.60225679	     45.31894569	      0.00000000	      0.00000000
     10.61821429	     -5.08934025	     -6.80838436	      4.71345719	      1.00952393	      0.90933291	      0.47506396	     -3.57237050	      5.07068607	    -16.06283441	      9.42328360	      9.42328360	     19.70671065	      5.68564445	     -1.90164432	     34.88024163	     -7.84985297	      0.69143819	     23.47583408	     23.47583408	      2.39638411	    -14.33991849	      8.00933772	     -9.72071395	      6.11404026	      4.33670491	     55.25435479	    -14.82548511	     -2.23914486	     94.45353907	     44.44662369	      0.00000000	      0.00000000	    -21.64823657	     -6.71043006	      4.57992268	     25.28548625	     45.29299250	      0.00000000	      0.00000000
     10.62928571	     -5.07205130	     -6.63699362	      4.47406897	      1.01124224	      0.90806079	      0.47313197	     -4.07333273	      4.68740188	    -15.78449533	      9.83061892	      9.83061892	     20.10404124	      5.61626260	     -1.97069306	     34.62631262	     -7.74014194	      0.51025270	     24.50646344	     24.50646344	      2.04990259	    -14.82567791	      7.89741919	     -9.50799226	      5.80802080	      4.51503875	     55.67793998	    -14.72099418	     -2.22627610	     94.84787767	     44.43779418	      0.00000000	      0.00000000	    -22.37587376	     -6.52460980	      4.63000878	     24.97436814	     45.27340426	      0.00000000	      0.00000000
     10.64035714	     -5.09900244	     -6.54226808	      4.29898051	      1.01252906	      0.90665289	      0.47103509	     -3.92826826	      4.22019011	    -15.46801449	     11.36570437	     11.36570437	     20.82017880	      5.04201640	     -1.96331415	     34.67565959	     -7.61567665	      0.64227499	     25.85761049	     25.85761049	      1.83198347	    -15.51713596	      7.32557901	     -9.41774273	      5.69556845	      4.20688009	     56.13249113	    -14.15638975	     -1.91919044	     96.13598963	     44.40003777	      0.00000000	      0.00000000	    -22.72231772	     -6.19161614	      4.80686139	     24.50886330	     45.24656142	      0.00000000	      0.00000000
     10.65142857	     -5.04072864	     -6.32596863	      4.10006786	      1.01394213	      0.90593975	      0.46882362	     -3.96546079	      3.64127783	    -15.13675523	     12.71163317	     12.71163317	     21.26465298	      4.49118395	     -1.90258047	     34.46174953	     -7.40547968	      0.60431292	     26.95326010	     26.95326010	      1.95326140	    -15.98082830	      6.84373965	     -9.37610560	      5.42687141	      4.16926943	     56.18767408	    -13.97878209	     -1.73794287	     97.04918705	     44.37752825	      0.00000000	      0.00000000	    -22.85757625	     -5.98237266	      4.94868817	     24.03973455	     45.23069118	      0.00000000	      0.00000000
     10.66250000	     -4.95615013	     -6.09717107	      3.95705605	      1.01527941	      0.90569451	      0.46654403	     -3.90957292	      3.03877815	    -14.73465616	     14.25363865	     14.25363865	     21.63063513	      3.80262256	     -1.86541438	     34.19960191	     -7.16012506	      0.57132639	     27.95654695	     27.95654695	      2.30770159	    -16.32586714	      6.50325603	     -9.36770784	      5.09659096	      4.25498238	     55.79229534	    -14.03326060	     -1.61573179	     98.17038515	     44.35885404	      0.00000000	      0.00000000	    -22.64667062	     -5.83144234	      5.15739349	     23.31696720	     45.21914231	      0.00000000	      0.00000000
